# xmcd
# 
# Track frame offsets:
#     150
#     21605
#     35775
#     61327
#     73877
#     106772
#     119597
#     138645
#     156195
#     180810
#     201945
#     225080
# 
# Disc length: 3249
# 
# Revision: 5
# Processed by: cddbd v1.5.2PL0 Copyright (c) Steve Scherf et al.
# Submitted via: fre:ac v1.0.31
# 
DISCID=a80caf0c
DTITLE=喜多郎 - ベストセレクション ～シルクロード幻想～
DYEAR=1993
DGENRE=Soundtrack
TTITLE0=シルクロード幻想
TTITLE1=静けさの中で(はるかなるタクラマカン砂漠)
TTITLE2=神秘なる砂の舞(ローラン)
TTITLE3=NEW WAVE 新たなる旅路
TTITLE4=COSMIC ENERGY 宇宙エネルギー
TTITLE5=SHIMMERING HORIZON 地平線
TTITLE6=飛翔
TTITLE7=天地創造神
TTITLE8=永遠の路
TTITLE9=敦煌からの想い
TTITLE10=絲綢之路～黒水城の幻想(SILVER MOON)
TTITLE11=絲綢之路
EXTD=
EXTT0=
EXTT1=
EXTT2=
EXTT3=
EXTT4=
EXTT5=
EXTT6=
EXTT7=
EXTT8=
EXTT9=
EXTT10=
EXTT11=
PLAYORDER=
